<svg width="158" height="212" viewBox="0 0 158 212" fill="none" xmlns="http://www.w3.org/2000/svg">
    <path d="M53.1428 11.0133L44.6428 20.0133L41.1428 29.8081L28.6428 31.0133L16.2052 43.4528L12.655 63.6672L16.2052 92.9781L24.1428 109.513L28.6428 122.013L32.1428 137.013V160.513L27.1428 185.513L12.655 198.013L1.14282 206.513L18.6428 211.013H38.1428H59.1428H77.6428H97.6428H118.143H142.643L156.643 206.513L142.643 187.513L138.643 174.013L133.143 159.013L126.643 137.013L124.484 119.013V105.513V92.9781L128.744 68.7208V48.0011L124.484 29.8081L115.254 16.6687L105.669 7.0669L89.1428 0.513306L74.6428 2.51331L63.6428 5.01331L53.1428 11.0133Z" fill="#300909" stroke="#300909"/>
    <path d="M57.6428 50.0133L45.6428 38.0133L40.6428 53.5133V64.5133V79.0133L43.6428 95.0133L48.6428 111.013L54.6428 123.513L66.1428 137.013L77.6428 144.013L88.1428 137.013L95.6428 123.513L100.143 109.013L103.643 95.0133V79.0133V68.0133L82.1428 64.5133L69.1428 58.0133L57.6428 50.0133Z" fill="white" stroke="white"/>
</svg>
