<svg width="24" height="28" viewBox="0 0 24 28" fill="none" xmlns="http://www.w3.org/2000/svg">
    <path d="M14.9708 0.950216L16.3125 0.5H17.75L19.1875 0.950216L20.5292 1.85065L21.9667 3.31385L23.1167 5.22727L23.5 7.47836V9.16667V11.7554L23.1167 13.5563L21.9667 16.7078L20.5292 19.0714L19.1875 20.6472L16.9833 22.6732L14.9708 24.5866L12.4792 26.5L9.9875 24.5866L7.975 22.6732L5.77083 20.6472L3.85417 18.2836L2.41667 16.2576L1.26667 13.5563L0.883333 11.7554L0.5 9.16667V7.47836L1.26667 5.22727L2.12917 3.31385L3.85417 1.85065L5.3875 0.950216L7.20833 0.5H8.64583L10.3708 0.950216L11.3292 1.85065L12.4792 5.22727L13.8208 1.85065L14.9708 0.950216Z" fill="url(#paint0_linear_294_158)" stroke="#EF750A"/>
    <defs>
        <linearGradient id="paint0_linear_294_158" x1="12" y1="0.5" x2="12" y2="26.5" gradientUnits="userSpaceOnUse">
            <stop stop-color="#DF2626"/>
            <stop offset="1" stop-color="#EF750A"/>
        </linearGradient>
    </defs>
</svg>
